<svg width="254" height="93" viewBox="0 0 254 93" fill="none" xmlns="http://www.w3.org/2000/svg">
<g filter="url(#filter0_d_0_1)">
<path d="M4.91863 6.632C4.91863 5.288 5.39863 4.168 6.35863 3.272C7.31863 2.312 8.50263 1.832 9.91063 1.832C11.3826 1.832 12.5666 2.312 13.4626 3.272C14.3586 4.168 14.8066 5.288 14.8066 6.632C14.8066 7.976 14.3586 9.128 13.4626 10.088C12.5666 10.984 11.3826 11.432 9.91063 11.432C8.50263 11.432 7.31863 10.984 6.35863 10.088C5.39863 9.128 4.91863 7.976 4.91863 6.632ZM6.07063 39.656H13.7506V64.808C13.4306 64.936 12.9506 65.064 12.3106 65.192C11.6706 65.384 10.9666 65.48 10.1986 65.48C8.85463 65.48 7.83063 65.224 7.12663 64.712C6.42263 64.136 6.07063 63.24 6.07063 62.024V39.656ZM13.7506 43.4H6.07063V20.84C6.39063 20.712 6.87063 20.584 7.51063 20.456C8.21463 20.264 8.95063 20.168 9.71863 20.168C11.0626 20.168 12.0546 20.456 12.6946 21.032C13.3986 21.544 13.7506 22.44 13.7506 23.72V43.4ZM67.1469 35.72V45.512H59.4669V36.104C59.4669 32.52 58.4429 29.896 56.3949 28.232C54.4109 26.568 51.7229 25.736 48.3309 25.736C45.7709 25.736 43.4989 26.056 41.5149 26.696C39.5309 27.336 37.8349 28.072 36.4269 28.904V45.512H28.7469V29.288C28.7469 27.944 29.0029 26.856 29.5149 26.024C30.0909 25.128 31.0509 24.264 32.3949 23.432C34.0589 22.472 36.2669 21.576 39.0189 20.744C41.7709 19.848 44.8749 19.4 48.3309 19.4C54.1549 19.4 58.7309 20.744 62.0589 23.432C65.4509 26.056 67.1469 30.152 67.1469 35.72ZM28.7469 40.232H36.4269V64.808C36.1069 64.936 35.6269 65.064 34.9869 65.192C34.3469 65.384 33.6429 65.48 32.8749 65.48C31.5309 65.48 30.5069 65.224 29.8029 64.712C29.0989 64.136 28.7469 63.24 28.7469 62.024V40.232ZM59.4669 40.232H67.1469V64.808C66.8269 64.936 66.3149 65.064 65.6109 65.192C64.9709 65.384 64.2989 65.48 63.5949 65.48C62.1869 65.48 61.1309 65.224 60.4269 64.712C59.7869 64.136 59.4669 63.24 59.4669 62.024V40.232ZM111.768 57.416V25.16L119.448 25.064V57.704C119.448 58.92 119.16 59.912 118.584 60.68C118.072 61.384 117.24 62.088 116.088 62.792C114.808 63.624 112.984 64.392 110.616 65.096C108.248 65.864 105.528 66.248 102.456 66.248C97.8481 66.248 93.7841 65.448 90.2641 63.848C86.7441 62.248 83.9921 59.752 82.0081 56.36C80.0241 52.904 79.0321 48.456 79.0321 43.016C79.0321 37.448 79.9921 32.936 81.9121 29.48C83.8961 26.024 86.5521 23.496 89.8801 21.896C93.2081 20.232 96.8561 19.4 100.824 19.4C103.32 19.4 105.688 19.752 107.928 20.456C110.168 21.16 111.928 22.024 113.208 23.048V30.152C111.992 28.936 110.392 27.912 108.408 27.08C106.488 26.184 104.216 25.736 101.592 25.736C98.9681 25.736 96.5361 26.312 94.2961 27.464C92.0561 28.552 90.2641 30.376 88.9201 32.936C87.5761 35.496 86.9041 38.92 86.9041 43.208C86.9041 49.032 88.3121 53.288 91.1281 55.976C93.9441 58.6 97.6881 59.912 102.36 59.912C104.6 59.912 106.424 59.688 107.832 59.24C109.304 58.728 110.616 58.12 111.768 57.416ZM119.448 26.984L111.768 27.08V2.792C112.088 2.664 112.568 2.536 113.208 2.408C113.912 2.216 114.616 2.12 115.32 2.12C116.728 2.12 117.752 2.408 118.392 2.984C119.096 3.496 119.448 4.36 119.448 5.576V26.984ZM133.356 6.632C133.356 5.288 133.836 4.168 134.796 3.272C135.756 2.312 136.94 1.832 138.348 1.832C139.82 1.832 141.004 2.312 141.9 3.272C142.796 4.168 143.244 5.288 143.244 6.632C143.244 7.976 142.796 9.128 141.9 10.088C141.004 10.984 139.82 11.432 138.348 11.432C136.94 11.432 135.756 10.984 134.796 10.088C133.836 9.128 133.356 7.976 133.356 6.632ZM134.508 39.656H142.188V64.808C141.868 64.936 141.388 65.064 140.748 65.192C140.108 65.384 139.404 65.48 138.636 65.48C137.292 65.48 136.268 65.224 135.564 64.712C134.86 64.136 134.508 63.24 134.508 62.024V39.656ZM142.188 43.4H134.508V20.84C134.828 20.712 135.308 20.584 135.948 20.456C136.652 20.264 137.388 20.168 138.156 20.168C139.5 20.168 140.492 20.456 141.132 21.032C141.836 21.544 142.188 22.44 142.188 23.72V43.4ZM175.616 63.656C171.904 63.656 168.48 62.952 165.344 61.544C162.208 60.072 159.68 57.704 157.76 54.44C155.84 51.176 154.88 46.856 154.88 41.48C154.88 36.616 155.808 32.552 157.664 29.288C159.584 26.024 162.208 23.56 165.536 21.896C168.864 20.232 172.672 19.4 176.96 19.4C179.904 19.4 182.592 19.784 185.024 20.552C187.52 21.256 189.6 22.152 191.264 23.24C192.224 23.88 192.992 24.616 193.568 25.448C194.208 26.216 194.528 27.176 194.528 28.328V57.992H186.848V28.424C185.76 27.72 184.384 27.112 182.72 26.6C181.12 26.024 179.2 25.736 176.96 25.736C172.672 25.736 169.216 27.048 166.592 29.672C163.968 32.296 162.656 36.2 162.656 41.384C162.656 47.144 163.968 51.24 166.592 53.672C169.28 56.104 172.576 57.32 176.48 57.32C179.296 57.32 181.568 56.84 183.296 55.88C185.024 54.92 186.4 53.864 187.424 52.712L187.808 59.528C186.848 60.552 185.312 61.512 183.2 62.408C181.152 63.24 178.624 63.656 175.616 63.656ZM186.848 66.44V56.36H194.528V66.92C194.528 71.144 193.6 74.536 191.744 77.096C189.952 79.656 187.456 81.512 184.256 82.664C181.12 83.816 177.568 84.392 173.6 84.392C170.4 84.392 167.648 84.04 165.344 83.336C163.04 82.632 161.472 82.056 160.64 81.608C158.72 80.52 157.76 79.144 157.76 77.48C157.76 76.584 157.952 75.816 158.336 75.176C158.784 74.6 159.328 74.152 159.968 73.832C161.312 74.856 163.2 75.784 165.632 76.616C168.128 77.512 170.784 77.96 173.6 77.96C177.888 77.96 181.152 77.032 183.392 75.176C185.696 73.32 186.848 70.408 186.848 66.44ZM249.931 42.824C249.931 47.56 249.035 51.688 247.243 55.208C245.451 58.728 242.923 61.448 239.659 63.368C236.395 65.288 232.555 66.248 228.139 66.248C223.723 66.248 219.851 65.288 216.523 63.368C213.259 61.448 210.731 58.728 208.939 55.208C207.147 51.688 206.251 47.56 206.251 42.824C206.251 38.024 207.147 33.896 208.939 30.44C210.795 26.92 213.355 24.2 216.619 22.28C219.947 20.36 223.787 19.4 228.139 19.4C232.491 19.4 236.299 20.36 239.563 22.28C242.827 24.2 245.355 26.92 247.147 30.44C249.003 33.896 249.931 38.024 249.931 42.824ZM228.139 25.736C223.851 25.736 220.427 27.272 217.867 30.344C215.371 33.352 214.123 37.512 214.123 42.824C214.123 48.2 215.339 52.392 217.771 55.4C220.267 58.408 223.723 59.912 228.139 59.912C232.491 59.912 235.883 58.408 238.315 55.4C240.811 52.328 242.059 48.136 242.059 42.824C242.059 37.512 240.811 33.352 238.315 30.344C235.883 27.272 232.491 25.736 228.139 25.736Z" fill="black"/>
<path d="M6.35863 3.272L7.04094 4.00305L7.05354 3.99129L7.06573 3.97911L6.35863 3.272ZM13.4626 3.272L12.7316 3.95432L12.7433 3.96692L12.7555 3.97911L13.4626 3.272ZM13.4626 10.088L14.1697 10.7951L14.1819 10.7829L14.1937 10.7703L13.4626 10.088ZM6.35863 10.088L5.65152 10.7951L5.66371 10.8073L5.67631 10.8191L6.35863 10.088ZM6.07063 39.656V38.656H5.07063V39.656H6.07063ZM13.7506 39.656H14.7506V38.656H13.7506V39.656ZM13.7506 64.808L14.122 65.7365L14.7506 65.485V64.808H13.7506ZM12.3106 65.192L12.1145 64.2114L12.0684 64.2206L12.0233 64.2342L12.3106 65.192ZM7.12663 64.712L6.49339 65.486L6.51543 65.504L6.53845 65.5207L7.12663 64.712ZM13.7506 43.4V44.4H14.7506V43.4H13.7506ZM6.07063 43.4H5.07063V44.4H6.07063V43.4ZM6.07063 20.84L5.69923 19.9115L5.07063 20.163V20.84H6.07063ZM7.51063 20.456L7.70674 21.4366L7.74051 21.4298L7.77374 21.4208L7.51063 20.456ZM12.6946 21.032L12.0257 21.7753L12.0644 21.8101L12.1065 21.8407L12.6946 21.032ZM5.91863 6.632C5.91863 5.55781 6.28891 4.70496 7.04094 4.00305L5.67631 2.54094C4.50835 3.63104 3.91863 5.01819 3.91863 6.632H5.91863ZM7.06573 3.97911C7.83057 3.21426 8.75686 2.832 9.91063 2.832V0.831995C8.24839 0.831995 6.80668 1.40973 5.65152 2.56489L7.06573 3.97911ZM9.91063 2.832C11.1425 2.832 12.0486 3.22253 12.7316 3.95432L14.1937 2.58968C13.0847 1.40147 11.6228 0.831995 9.91063 0.831995V2.832ZM12.7555 3.97911C13.4517 4.67531 13.8066 5.53536 13.8066 6.632H15.8066C15.8066 5.04064 15.2655 3.66069 14.1697 2.56489L12.7555 3.97911ZM13.8066 6.632C13.8066 7.7293 13.4503 8.63561 12.7316 9.40568L14.1937 10.7703C15.267 9.62038 15.8066 8.2227 15.8066 6.632H13.8066ZM12.7555 9.38089C12.0775 10.0589 11.1638 10.432 9.91063 10.432V12.432C11.6015 12.432 13.0558 11.9091 14.1697 10.7951L12.7555 9.38089ZM9.91063 10.432C8.73589 10.432 7.80163 10.0669 7.04094 9.35694L5.67631 10.8191C6.83562 11.9011 8.26936 12.432 9.91063 12.432V10.432ZM7.06573 9.38089C6.29113 8.60629 5.91863 7.70777 5.91863 6.632H3.91863C3.91863 8.24423 4.50612 9.64971 5.65152 10.7951L7.06573 9.38089ZM6.07063 40.656H13.7506V38.656H6.07063V40.656ZM12.7506 39.656V64.808H14.7506V39.656H12.7506ZM13.3792 63.8795C13.1457 63.9729 12.7376 64.0868 12.1145 64.2114L12.5067 66.1726C13.1637 66.0412 13.7155 65.8991 14.122 65.7365L13.3792 63.8795ZM12.0233 64.2342C11.4892 64.3944 10.8835 64.48 10.1986 64.48V66.48C11.0497 66.48 11.852 66.3736 12.598 66.1498L12.0233 64.2342ZM10.1986 64.48C8.95833 64.48 8.17762 64.2399 7.7148 63.9033L6.53845 65.5207C7.48363 66.2081 8.75092 66.48 10.1986 66.48V64.48ZM7.75986 63.938C7.36022 63.6111 7.07063 63.0479 7.07063 62.024H5.07063C5.07063 63.4321 5.48503 64.6609 6.49339 65.486L7.75986 63.938ZM7.07063 62.024V39.656H5.07063V62.024H7.07063ZM13.7506 42.4H6.07063V44.4H13.7506V42.4ZM7.07063 43.4V20.84H5.07063V43.4H7.07063ZM6.44202 21.7685C6.67551 21.6751 7.08367 21.5612 7.70674 21.4366L7.31451 19.4754C6.65758 19.6068 6.10574 19.7489 5.69923 19.9115L6.44202 21.7685ZM7.77374 21.4208C8.38761 21.2533 9.03484 21.168 9.71863 21.168V19.168C8.86641 19.168 8.04165 19.2747 7.24751 19.4912L7.77374 21.4208ZM9.71863 21.168C10.9483 21.168 11.6485 21.4358 12.0257 21.7753L13.3636 20.2887C12.4608 19.4762 11.177 19.168 9.71863 19.168V21.168ZM12.1065 21.8407C12.446 22.0877 12.7506 22.6018 12.7506 23.72H14.7506C14.7506 22.2782 14.3512 21.0003 13.2828 20.2233L12.1065 21.8407ZM12.7506 23.72V43.4H14.7506V23.72H12.7506ZM67.1469 45.512V46.512H68.1469V45.512H67.1469ZM59.4669 45.512H58.4669V46.512H59.4669V45.512ZM56.3949 28.232L55.7523 28.9982L55.7582 29.0032L55.7643 29.0081L56.3949 28.232ZM36.4269 28.904L35.9181 28.0431L35.4269 28.3334V28.904H36.4269ZM36.4269 45.512V46.512H37.4269V45.512H36.4269ZM28.7469 45.512H27.7469V46.512H28.7469V45.512ZM29.5149 26.024L28.6737 25.4832L28.6684 25.4915L28.6632 25.4999L29.5149 26.024ZM32.3949 23.432L31.8952 22.5658L31.8817 22.5736L31.8685 22.5817L32.3949 23.432ZM39.0189 20.744L39.3083 21.7012L39.3184 21.6981L39.3285 21.6949L39.0189 20.744ZM62.0589 23.432L61.4305 24.2099L61.4387 24.2165L61.447 24.223L62.0589 23.432ZM28.7469 40.232V39.232H27.7469V40.232H28.7469ZM36.4269 40.232H37.4269V39.232H36.4269V40.232ZM36.4269 64.808L36.7983 65.7365L37.4269 65.485V64.808H36.4269ZM34.9869 65.192L34.7908 64.2114L34.7446 64.2206L34.6995 64.2342L34.9869 65.192ZM29.8029 64.712L29.1696 65.486L29.1917 65.504L29.2147 65.5207L29.8029 64.712ZM59.4669 40.232V39.232H58.4669V40.232H59.4669ZM67.1469 40.232H68.1469V39.232H67.1469V40.232ZM67.1469 64.808L67.5183 65.7365L68.1469 65.485V64.808H67.1469ZM65.6109 65.192L65.432 64.2081L65.377 64.2181L65.3235 64.2342L65.6109 65.192ZM60.4269 64.712L59.7579 65.4553L59.7966 65.4901L59.8387 65.5207L60.4269 64.712ZM66.1469 35.72V45.512H68.1469V35.72H66.1469ZM67.1469 44.512H59.4669V46.512H67.1469V44.512ZM60.4669 45.512V36.104H58.4669V45.512H60.4669ZM60.4669 36.104C60.4669 32.3334 59.3836 29.3718 57.0255 27.4559L55.7643 29.0081C57.5022 30.4202 58.4669 32.7066 58.4669 36.104H60.4669ZM57.0375 27.4658C54.824 25.6093 51.8841 24.736 48.3309 24.736V26.736C51.5617 26.736 53.9978 27.5267 55.7523 28.9982L57.0375 27.4658ZM48.3309 24.736C45.6895 24.736 43.3107 25.066 41.2079 25.7443L41.8219 27.6477C43.6871 27.046 45.8523 26.736 48.3309 26.736V24.736ZM41.2079 25.7443C39.1717 26.4011 37.4044 27.1648 35.9181 28.0431L36.9356 29.7649C38.2653 28.9792 39.8901 28.2709 41.8219 27.6477L41.2079 25.7443ZM35.4269 28.904V45.512H37.4269V28.904H35.4269ZM36.4269 44.512H28.7469V46.512H36.4269V44.512ZM29.7469 45.512V29.288H27.7469V45.512H29.7469ZM29.7469 29.288C29.7469 28.0622 29.9814 27.1739 30.3665 26.5481L28.6632 25.4999C28.0243 26.5381 27.7469 27.8258 27.7469 29.288H29.7469ZM30.3561 26.5648C30.8221 25.8398 31.6477 25.0706 32.9212 24.2823L31.8685 22.5817C30.454 23.4574 29.3597 24.4162 28.6737 25.4832L30.3561 26.5648ZM32.8946 24.2982C34.4682 23.3903 36.5972 22.5208 39.3083 21.7012L38.7295 19.7868C35.9365 20.6312 33.6496 21.5537 31.8952 22.5658L32.8946 24.2982ZM39.3285 21.6949C41.9633 20.837 44.9602 20.4 48.3309 20.4V18.4C44.7895 18.4 41.5785 18.859 38.7093 19.7931L39.3285 21.6949ZM48.3309 20.4C54.0084 20.4 58.3353 21.7099 61.4305 24.2099L62.6872 22.6541C59.1264 19.7781 54.3013 18.4 48.3309 18.4V20.4ZM61.447 24.223C64.5244 26.6035 66.1469 30.361 66.1469 35.72H68.1469C68.1469 29.943 66.3774 25.5084 62.6707 22.641L61.447 24.223ZM28.7469 41.232H36.4269V39.232H28.7469V41.232ZM35.4269 40.232V64.808H37.4269V40.232H35.4269ZM36.0555 63.8795C35.822 63.9729 35.4138 64.0868 34.7908 64.2114L35.183 66.1726C35.8399 66.0412 36.3918 65.8991 36.7983 65.7365L36.0555 63.8795ZM34.6995 64.2342C34.1655 64.3944 33.5598 64.48 32.8749 64.48V66.48C33.726 66.48 34.5283 66.3736 35.2742 66.1498L34.6995 64.2342ZM32.8749 64.48C31.6346 64.48 30.8539 64.2399 30.391 63.9033L29.2147 65.5207C30.1599 66.2081 31.4272 66.48 32.8749 66.48V64.48ZM30.4361 63.938C30.0365 63.6111 29.7469 63.0479 29.7469 62.024H27.7469C27.7469 63.4321 28.1613 64.6609 29.1696 65.486L30.4361 63.938ZM29.7469 62.024V40.232H27.7469V62.024H29.7469ZM59.4669 41.232H67.1469V39.232H59.4669V41.232ZM66.1469 40.232V64.808H68.1469V40.232H66.1469ZM66.7755 63.8795C66.5538 63.9682 66.1246 64.0822 65.432 64.2081L65.7898 66.1759C66.5051 66.0458 67.1 65.9038 67.5183 65.7365L66.7755 63.8795ZM65.3235 64.2342C64.7816 64.3967 64.2068 64.48 63.5949 64.48V66.48C64.391 66.48 65.1601 66.3713 65.8982 66.1498L65.3235 64.2342ZM63.5949 64.48C62.2783 64.48 61.4716 64.2353 61.0151 63.9033L59.8387 65.5207C60.7901 66.2127 62.0954 66.48 63.5949 66.48V64.48ZM61.0958 63.9687C60.7419 63.6501 60.4669 63.0767 60.4669 62.024H58.4669C58.4669 63.4033 58.8319 64.6219 59.7579 65.4553L61.0958 63.9687ZM60.4669 62.024V40.232H58.4669V62.024H60.4669ZM111.768 57.416L112.29 58.2693L112.768 57.9768V57.416H111.768ZM111.768 25.16L111.756 24.1601L110.768 24.1724V25.16H111.768ZM119.448 25.064H120.448V24.0514L119.436 24.0641L119.448 25.064ZM118.584 60.68L117.784 60.08L117.78 60.0859L117.775 60.0918L118.584 60.68ZM116.088 62.792L115.567 61.9387L115.555 61.946L115.543 61.9536L116.088 62.792ZM110.616 65.096L110.331 64.1375L110.319 64.141L110.308 64.1448L110.616 65.096ZM90.2641 63.848L89.8503 64.7584L89.8503 64.7584L90.2641 63.848ZM82.0081 56.36L81.1408 56.8579L81.1449 56.8649L82.0081 56.36ZM81.9121 29.48L81.0448 28.9821L81.038 28.9944L81.9121 29.48ZM89.8801 21.896L90.3134 22.7972L90.3204 22.7939L90.3273 22.7904L89.8801 21.896ZM113.208 23.048H114.208V22.5674L113.833 22.2671L113.208 23.048ZM113.208 30.152L112.501 30.8591L114.208 32.5662V30.152H113.208ZM108.408 27.08L107.985 27.9862L108.003 27.9945L108.021 28.0022L108.408 27.08ZM94.2961 27.464L94.733 28.3635L94.7433 28.3585L94.7535 28.3533L94.2961 27.464ZM88.9201 32.936L88.0347 32.4712L88.0347 32.4712L88.9201 32.936ZM91.1281 55.976L90.4376 56.6994L90.4464 56.7076L91.1281 55.976ZM107.832 59.24L108.135 60.1929L108.148 60.1889L108.161 60.1845L107.832 59.24ZM119.448 26.984L119.461 27.9839L120.448 27.9716V26.984H119.448ZM111.768 27.08H110.768V28.0926L111.781 28.0799L111.768 27.08ZM111.768 2.792L111.397 1.86353L110.768 2.11497V2.792H111.768ZM113.208 2.408L113.404 3.38858L113.438 3.38183L113.471 3.37276L113.208 2.408ZM118.392 2.984L117.723 3.72729L117.762 3.76211L117.804 3.79273L118.392 2.984ZM112.768 57.416V25.16H110.768V57.416H112.768ZM111.781 26.1599L119.461 26.0639L119.436 24.0641L111.756 24.1601L111.781 26.1599ZM118.448 25.064V57.704H120.448V25.064H118.448ZM118.448 57.704C118.448 58.7619 118.199 59.5266 117.784 60.08L119.384 61.28C120.121 60.2974 120.448 59.0781 120.448 57.704H118.448ZM117.775 60.0918C117.371 60.6472 116.662 61.2695 115.567 61.9387L116.61 63.6453C117.819 62.9065 118.773 62.1208 119.393 61.2682L117.775 60.0918ZM115.543 61.9536C114.378 62.7111 112.656 63.4462 110.331 64.1375L110.901 66.0545C113.312 65.3378 115.239 64.5369 116.633 63.6304L115.543 61.9536ZM110.308 64.1448C108.059 64.8739 105.447 65.248 102.456 65.248V67.248C105.609 67.248 108.437 66.8541 110.925 66.0472L110.308 64.1448ZM102.456 65.248C97.9639 65.248 94.0455 64.4683 90.6779 62.9376L89.8503 64.7584C93.5228 66.4277 97.7324 67.248 102.456 67.248V65.248ZM90.6779 62.9376C87.3493 61.4246 84.7528 59.0719 82.8713 55.8551L81.1449 56.8649C83.2314 60.4321 86.139 63.0714 89.8503 64.7584L90.6779 62.9376ZM82.8754 55.8621C81.0044 52.6031 80.0321 48.3424 80.0321 43.016H78.0321C78.0321 48.5696 79.0438 53.2049 81.1409 56.8579L82.8754 55.8621ZM80.0321 43.016C80.0321 37.5524 80.9757 33.2247 82.7863 29.9656L81.038 28.9944C79.0086 32.6473 78.0321 37.3436 78.0321 43.016H80.0321ZM82.7794 29.9779C84.6712 26.6825 87.1821 24.3027 90.3134 22.7972L89.4468 20.9947C85.9222 22.6893 83.1211 25.3655 81.0449 28.9821L82.7794 29.9779ZM90.3273 22.7904C93.5073 21.2004 97.0008 20.4 100.824 20.4V18.4C96.7114 18.4 92.9089 19.2636 89.4329 21.0016L90.3273 22.7904ZM100.824 20.4C103.225 20.4 105.491 20.7384 107.628 21.41L108.228 19.502C105.885 18.7656 103.415 18.4 100.824 18.4V20.4ZM107.628 21.41C109.797 22.0916 111.432 22.9079 112.583 23.8289L113.833 22.2671C112.424 21.1401 110.539 20.2284 108.228 19.502L107.628 21.41ZM112.208 23.048V30.152H114.208V23.048H112.208ZM113.915 29.4449C112.588 28.1172 110.87 27.0279 108.795 26.1578L108.021 28.0022C109.915 28.7961 111.397 29.7548 112.501 30.8591L113.915 29.4449ZM108.831 26.1738C106.751 25.2031 104.328 24.736 101.592 24.736V26.736C104.104 26.736 106.225 27.1649 107.985 27.9862L108.831 26.1738ZM101.592 24.736C98.8159 24.736 96.2262 25.3469 93.8388 26.5747L94.7535 28.3533C96.846 27.2771 99.1204 26.736 101.592 26.736V24.736ZM93.8592 26.5645C91.3974 27.7602 89.4614 29.7537 88.0347 32.4712L89.8055 33.4008C91.0668 30.9983 92.7149 29.3438 94.733 28.3635L93.8592 26.5645ZM88.0347 32.4712C86.5878 35.2271 85.9041 38.8302 85.9041 43.208H87.9041C87.9041 39.0098 88.5644 35.7649 89.8055 33.4008L88.0347 32.4712ZM85.9041 43.208C85.9041 49.1702 87.3439 53.7462 90.4377 56.6994L91.8186 55.2526C89.2804 52.8298 87.9041 48.8938 87.9041 43.208H85.9041ZM90.4464 56.7076C93.4854 59.5394 97.4922 60.912 102.36 60.912V58.912C97.8841 58.912 94.4028 57.6606 91.8099 55.2444L90.4464 56.7076ZM102.36 60.912C104.656 60.912 106.593 60.6838 108.135 60.1929L107.529 58.2871C106.256 58.6922 104.545 58.912 102.36 58.912V60.912ZM108.161 60.1845C109.69 59.6526 111.068 59.0157 112.29 58.2693L111.247 56.5627C110.164 57.2243 108.918 57.8034 107.504 58.2955L108.161 60.1845ZM119.436 25.9841L111.756 26.0801L111.781 28.0799L119.461 27.9839L119.436 25.9841ZM112.768 27.08V2.792H110.768V27.08H112.768ZM112.14 3.72047C112.373 3.62708 112.781 3.51319 113.404 3.38858L113.012 1.42742C112.355 1.5588 111.803 1.70092 111.397 1.86353L112.14 3.72047ZM113.471 3.37276C114.093 3.20329 114.708 3.12 115.32 3.12V1.12C114.524 1.12 113.732 1.22871 112.945 1.44324L113.471 3.37276ZM115.32 3.12C116.628 3.12 117.353 3.39397 117.723 3.72729L119.061 2.2407C118.151 1.42203 116.828 1.12 115.32 1.12V3.12ZM117.804 3.79273C118.156 4.04872 118.448 4.54382 118.448 5.576H120.448C120.448 4.17618 120.036 2.94328 118.98 2.17526L117.804 3.79273ZM118.448 5.576V26.984H120.448V5.576H118.448ZM134.796 3.272L135.478 4.00305L135.491 3.99129L135.503 3.97911L134.796 3.272ZM141.9 3.272L141.169 3.95432L141.181 3.96692L141.193 3.97911L141.9 3.272ZM141.9 10.088L142.607 10.7951L142.619 10.7829L142.631 10.7703L141.9 10.088ZM134.796 10.088L134.089 10.7951L134.101 10.8073L134.114 10.8191L134.796 10.088ZM134.508 39.656V38.656H133.508V39.656H134.508ZM142.188 39.656H143.188V38.656H142.188V39.656ZM142.188 64.808L142.56 65.7365L143.188 65.485V64.808H142.188ZM140.748 65.192L140.552 64.2114L140.506 64.2206L140.461 64.2342L140.748 65.192ZM135.564 64.712L134.931 65.486L134.953 65.504L134.976 65.5207L135.564 64.712ZM142.188 43.4V44.4H143.188V43.4H142.188ZM134.508 43.4H133.508V44.4H134.508V43.4ZM134.508 20.84L134.137 19.9115L133.508 20.163V20.84H134.508ZM135.948 20.456L136.144 21.4366L136.178 21.4298L136.211 21.4208L135.948 20.456ZM141.132 21.032L140.463 21.7753L140.502 21.8101L140.544 21.8407L141.132 21.032ZM134.356 6.632C134.356 5.55781 134.726 4.70496 135.478 4.00305L134.114 2.54094C132.946 3.63104 132.356 5.01819 132.356 6.632H134.356ZM135.503 3.97911C136.268 3.21426 137.194 2.832 138.348 2.832V0.831995C136.686 0.831995 135.244 1.40973 134.089 2.56489L135.503 3.97911ZM138.348 2.832C139.58 2.832 140.486 3.22253 141.169 3.95432L142.631 2.58968C141.522 1.40147 140.06 0.831995 138.348 0.831995V2.832ZM141.193 3.97911C141.889 4.67531 142.244 5.53536 142.244 6.632H144.244C144.244 5.04064 143.703 3.66069 142.607 2.56489L141.193 3.97911ZM142.244 6.632C142.244 7.7293 141.888 8.63561 141.169 9.40568L142.631 10.7703C143.704 9.62038 144.244 8.2227 144.244 6.632H142.244ZM141.193 9.38089C140.515 10.0589 139.601 10.432 138.348 10.432V12.432C140.039 12.432 141.493 11.9091 142.607 10.7951L141.193 9.38089ZM138.348 10.432C137.173 10.432 136.239 10.0669 135.478 9.35694L134.114 10.8191C135.273 11.9011 136.707 12.432 138.348 12.432V10.432ZM135.503 9.38089C134.729 8.60629 134.356 7.70777 134.356 6.632H132.356C132.356 8.24423 132.944 9.64971 134.089 10.7951L135.503 9.38089ZM134.508 40.656H142.188V38.656H134.508V40.656ZM141.188 39.656V64.808H143.188V39.656H141.188ZM141.817 63.8795C141.583 63.9729 141.175 64.0868 140.552 64.2114L140.944 66.1726C141.601 66.0412 142.153 65.8991 142.56 65.7365L141.817 63.8795ZM140.461 64.2342C139.927 64.3944 139.321 64.48 138.636 64.48V66.48C139.487 66.48 140.29 66.3736 141.035 66.1498L140.461 64.2342ZM138.636 64.48C137.396 64.48 136.615 64.2399 136.152 63.9033L134.976 65.5207C135.921 66.2081 137.188 66.48 138.636 66.48V64.48ZM136.197 63.938C135.798 63.6111 135.508 63.0479 135.508 62.024H133.508C133.508 63.4321 133.923 64.6609 134.931 65.486L136.197 63.938ZM135.508 62.024V39.656H133.508V62.024H135.508ZM142.188 42.4H134.508V44.4H142.188V42.4ZM135.508 43.4V20.84H133.508V43.4H135.508ZM134.88 21.7685C135.113 21.6751 135.521 21.5612 136.144 21.4366L135.752 19.4754C135.095 19.6068 134.543 19.7489 134.137 19.9115L134.88 21.7685ZM136.211 21.4208C136.825 21.2533 137.472 21.168 138.156 21.168V19.168C137.304 19.168 136.479 19.2747 135.685 19.4912L136.211 21.4208ZM138.156 21.168C139.386 21.168 140.086 21.4358 140.463 21.7753L141.801 20.2887C140.898 19.4762 139.614 19.168 138.156 19.168V21.168ZM140.544 21.8407C140.884 22.0877 141.188 22.6018 141.188 23.72H143.188C143.188 22.2782 142.789 21.0003 141.72 20.2233L140.544 21.8407ZM141.188 23.72V43.4H143.188V23.72H141.188ZM165.344 61.544L164.919 62.4492L164.927 62.4528L164.935 62.4563L165.344 61.544ZM157.76 54.44L156.898 54.947L156.898 54.947L157.76 54.44ZM157.664 29.288L156.802 28.781L156.799 28.7873L156.795 28.7937L157.664 29.288ZM165.536 21.896L165.089 21.0016L165.089 21.0016L165.536 21.896ZM185.024 20.552L184.723 21.5056L184.738 21.5102L184.753 21.5144L185.024 20.552ZM191.264 23.24L191.819 22.4079L191.812 22.403L191.264 23.24ZM193.568 25.448L192.746 26.0172L192.772 26.0539L192.8 26.0882L193.568 25.448ZM194.528 57.992V58.992H195.528V57.992H194.528ZM186.848 57.992H185.848V58.992H186.848V57.992ZM186.848 28.424H187.848V27.88L187.392 27.5844L186.848 28.424ZM182.72 26.6L182.382 27.5409L182.404 27.5489L182.426 27.5558L182.72 26.6ZM166.592 29.672L165.885 28.9649L165.885 28.9649L166.592 29.672ZM166.592 53.672L165.913 54.4055L165.921 54.4135L166.592 53.672ZM183.296 55.88L182.811 55.0058L182.811 55.0058L183.296 55.88ZM187.424 52.712L188.423 52.6558L188.287 50.2369L186.677 52.0476L187.424 52.712ZM187.808 59.528L188.538 60.2119L188.831 59.8994L188.807 59.4718L187.808 59.528ZM183.2 62.408L183.577 63.3345L183.584 63.3316L183.591 63.3286L183.2 62.408ZM186.848 56.36V55.36H185.848V56.36H186.848ZM194.528 56.36H195.528V55.36H194.528V56.36ZM191.744 77.096L190.935 76.509L190.93 76.5157L190.925 76.5225L191.744 77.096ZM184.256 82.664L183.918 81.7231L183.912 81.7253L184.256 82.664ZM165.344 83.336L165.052 84.2924L165.052 84.2924L165.344 83.336ZM160.64 81.608L160.147 82.478L160.157 82.4833L160.166 82.4885L160.64 81.608ZM158.336 75.176L157.547 74.5621L157.51 74.6097L157.479 74.6615L158.336 75.176ZM159.968 73.832L160.574 73.0366L160.079 72.6588L159.521 72.9376L159.968 73.832ZM165.632 76.616L165.97 75.6748L165.963 75.6723L165.956 75.6698L165.632 76.616ZM183.392 75.176L182.765 74.3972L182.754 74.406L183.392 75.176ZM175.616 62.656C172.034 62.656 168.751 61.9774 165.754 60.6317L164.935 62.4563C168.21 63.9266 171.775 64.656 175.616 64.656V62.656ZM165.769 60.6388C162.833 59.2604 160.45 57.0402 158.622 53.933L156.898 54.947C158.911 58.3678 161.584 60.8836 164.919 62.4492L165.769 60.6388ZM158.622 53.933C156.823 50.874 155.88 46.7485 155.88 41.48H153.88C153.88 46.9635 154.858 51.478 156.898 54.947L158.622 53.933ZM155.88 41.48C155.88 36.7394 156.785 32.8575 158.534 29.7823L156.795 28.7937C154.832 32.2465 153.88 36.4926 153.88 41.48H155.88ZM158.526 29.795C160.35 26.6944 162.832 24.3664 165.984 22.7904L165.089 21.0016C161.585 22.7536 158.819 25.3536 156.802 28.781L158.526 29.795ZM165.984 22.7904C169.153 21.2057 172.804 20.4 176.96 20.4V18.4C172.541 18.4 168.576 19.2583 165.089 21.0016L165.984 22.7904ZM176.96 20.4C179.818 20.4 182.402 20.7727 184.723 21.5056L185.326 19.5984C182.782 18.7953 179.991 18.4 176.96 18.4V20.4ZM184.753 21.5144C187.179 22.1988 189.159 23.0585 190.717 24.077L191.812 22.403C190.041 21.2455 187.862 20.3132 185.296 19.5895L184.753 21.5144ZM190.71 24.072C191.579 24.6518 192.251 25.3024 192.746 26.0172L194.391 24.8788C193.733 23.9296 192.869 23.1082 191.819 22.4079L190.71 24.072ZM192.8 26.0882C193.268 26.6496 193.528 27.3723 193.528 28.328H195.528C195.528 26.9797 195.149 25.7824 194.337 24.8078L192.8 26.0882ZM193.528 28.328V57.992H195.528V28.328H193.528ZM194.528 56.992H186.848V58.992H194.528V56.992ZM187.848 57.992V28.424H185.848V57.992H187.848ZM187.392 27.5844C186.205 26.8166 184.738 26.1747 183.014 25.6442L182.426 27.5558C184.03 28.0493 185.316 28.6234 186.305 29.2636L187.392 27.5844ZM183.059 25.6591C181.322 25.0338 179.281 24.736 176.96 24.736V26.736C179.119 26.736 180.919 27.0142 182.382 27.5409L183.059 25.6591ZM176.96 24.736C172.452 24.736 168.726 26.124 165.885 28.9649L167.299 30.3791C169.707 27.972 172.893 26.736 176.96 26.736V24.736ZM165.885 28.9649C163.01 31.8405 161.656 36.0417 161.656 41.384H163.656C163.656 36.3583 164.927 32.7515 167.299 30.3791L165.885 28.9649ZM161.656 41.384C161.656 47.2575 162.989 51.6955 165.913 54.4054L167.272 52.9386C164.948 50.7845 163.656 47.0305 163.656 41.384H161.656ZM165.921 54.4135C168.808 57.0253 172.349 58.32 176.48 58.32V56.32C172.804 56.32 169.753 55.1827 167.263 52.9305L165.921 54.4135ZM176.48 58.32C179.398 58.32 181.856 57.8244 183.782 56.7542L182.811 55.0058C181.281 55.8556 179.194 56.32 176.48 56.32V58.32ZM183.782 56.7542C185.582 55.7541 187.055 54.6325 188.172 53.3764L186.677 52.0476C185.746 53.0955 184.467 54.0858 182.811 55.0058L183.782 56.7542ZM186.426 52.7682L186.81 59.5842L188.807 59.4718L188.423 52.6558L186.426 52.7682ZM187.079 58.8441C186.256 59.722 184.865 60.6155 182.81 61.4874L183.591 63.3286C185.76 62.4085 187.441 61.382 188.538 60.2119L187.079 58.8441ZM182.824 61.4815C180.93 62.2509 178.539 62.656 175.616 62.656V64.656C178.71 64.656 181.375 64.2291 183.577 63.3345L182.824 61.4815ZM187.848 66.44V56.36H185.848V66.44H187.848ZM186.848 57.36H194.528V55.36H186.848V57.36ZM193.528 56.36V66.92H195.528V56.36H193.528ZM193.528 66.92C193.528 71.0032 192.631 74.1688 190.935 76.509L192.554 77.683C194.569 74.9032 195.528 71.2848 195.528 66.92H193.528ZM190.925 76.5225C189.262 78.8983 186.941 80.6346 183.918 81.7231L184.595 83.6049C187.971 82.3895 190.643 80.4137 192.564 77.6695L190.925 76.5225ZM183.912 81.7253C180.905 82.8299 177.472 83.392 173.6 83.392V85.392C177.664 85.392 181.336 84.8021 184.601 83.6027L183.912 81.7253ZM173.6 83.392C170.469 83.392 167.821 83.047 165.637 82.3796L165.052 84.2924C167.476 85.033 170.332 85.392 173.6 85.392V83.392ZM165.637 82.3796C163.328 81.6743 161.849 81.1229 161.114 80.7275L160.166 82.4885C161.096 82.9891 162.753 83.5897 165.052 84.2924L165.637 82.3796ZM161.133 80.738C159.41 79.7612 158.76 78.667 158.76 77.48H156.76C156.76 79.621 158.031 81.2788 160.147 82.478L161.133 80.738ZM158.76 77.48C158.76 76.7288 158.92 76.1465 159.194 75.6905L157.479 74.6615C156.984 75.4855 156.76 76.4393 156.76 77.48H158.76ZM159.126 75.7899C159.484 75.3294 159.912 74.9783 160.416 74.7264L159.521 72.9376C158.745 73.3257 158.085 73.8706 157.547 74.5621L159.126 75.7899ZM159.362 74.6274C160.824 75.7411 162.822 76.7116 165.309 77.5622L165.956 75.6698C163.578 74.8564 161.801 73.9709 160.574 73.0366L159.362 74.6274ZM165.295 77.5572C167.905 78.4945 170.676 78.96 173.6 78.96V76.96C170.892 76.96 168.351 76.5295 165.97 75.6748L165.295 77.5572ZM173.6 78.96C178.014 78.96 181.543 78.007 184.03 75.946L182.754 74.406C180.762 76.057 177.762 76.96 173.6 76.96V78.96ZM184.02 75.9548C186.634 73.8491 187.848 70.6003 187.848 66.44H185.848C185.848 70.2157 184.759 72.7909 182.765 74.3972L184.02 75.9548ZM247.243 55.208L246.352 54.7543L246.352 54.7543L247.243 55.208ZM216.523 63.368L216.016 64.23L216.023 64.2342L216.523 63.368ZM208.939 55.208L209.83 54.7543L209.83 54.7543L208.939 55.208ZM208.939 30.44L208.054 29.9736L208.051 29.9797L208.939 30.44ZM216.619 22.28L216.119 21.4138L216.112 21.4181L216.619 22.28ZM247.147 30.44L246.256 30.8937L246.261 30.9035L246.266 30.9131L247.147 30.44ZM217.867 30.344L217.099 29.7038L217.097 29.7054L217.867 30.344ZM217.771 55.4L216.993 56.0288L217.001 56.0386L217.771 55.4ZM238.315 55.4L237.539 54.7694L237.537 54.7713L238.315 55.4ZM238.315 30.344L237.531 30.9647L237.538 30.9737L237.545 30.9826L238.315 30.344ZM248.931 42.824C248.931 47.4334 248.059 51.4002 246.352 54.7543L248.134 55.6617C250.01 51.9758 250.931 47.6866 250.931 42.824H248.931ZM246.352 54.7543C244.642 58.1121 242.244 60.687 239.152 62.5061L240.166 64.2299C243.602 62.209 246.259 59.3439 248.134 55.6617L246.352 54.7543ZM239.152 62.5061C236.065 64.3216 232.407 65.248 228.139 65.248V67.248C232.703 67.248 236.724 66.2544 240.166 64.2299L239.152 62.5061ZM228.139 65.248C223.872 65.248 220.177 64.3218 217.023 62.5018L216.023 64.2342C219.525 66.2542 223.574 67.248 228.139 67.248V65.248ZM217.03 62.5061C213.938 60.687 211.539 58.1121 209.83 54.7543L208.048 55.6617C209.922 59.3439 212.58 62.209 216.016 64.2299L217.03 62.5061ZM209.83 54.7543C208.122 51.4002 207.251 47.4334 207.251 42.824H205.251C205.251 47.6866 206.171 51.9758 208.048 55.6617L209.83 54.7543ZM207.251 42.824C207.251 38.1475 208.124 34.1847 209.827 30.9003L208.051 29.9797C206.17 33.6073 205.251 37.9005 205.251 42.824H207.251ZM209.823 30.9064C211.597 27.542 214.03 24.9628 217.126 23.1419L216.112 21.4181C212.679 23.4372 209.992 26.298 208.054 29.9736L209.823 30.9064ZM217.119 23.1462C220.275 21.325 223.939 20.4 228.139 20.4V18.4C223.635 18.4 219.618 19.395 216.119 21.4138L217.119 23.1462ZM228.139 20.4C232.34 20.4 235.967 21.3251 239.056 23.1419L240.07 21.4181C236.63 19.3949 232.642 18.4 228.139 18.4V20.4ZM239.056 23.1419C242.148 24.961 244.546 27.5359 246.256 30.8937L248.038 29.9863C246.163 26.3041 243.506 23.439 240.07 21.4181L239.056 23.1419ZM246.266 30.9131C248.028 34.1946 248.931 38.1526 248.931 42.824H250.931C250.931 37.8954 249.978 33.5974 248.028 29.9669L246.266 30.9131ZM228.139 24.736C223.579 24.736 219.864 26.3857 217.099 29.7038L218.635 30.9842C220.99 28.1583 224.123 26.736 228.139 26.736V24.736ZM217.097 29.7054C214.407 32.9482 213.123 37.3624 213.123 42.824H215.123C215.123 37.6616 216.335 33.7558 218.636 30.9826L217.097 29.7054ZM213.123 42.824C213.123 48.3408 214.37 52.7846 216.993 56.0287L218.549 54.7713C216.307 51.9994 215.123 48.0592 215.123 42.824H213.123ZM217.001 56.0386C219.713 59.307 223.469 60.912 228.139 60.912V58.912C223.977 58.912 220.82 57.509 218.54 54.7614L217.001 56.0386ZM228.139 60.912C232.75 60.912 236.445 59.3029 239.093 56.0287L237.537 54.7713C235.32 57.5131 232.232 58.912 228.139 58.912V60.912ZM239.091 56.0306C241.775 52.7276 243.059 48.2871 243.059 42.824H241.059C241.059 47.9849 239.847 51.9284 237.539 54.7694L239.091 56.0306ZM243.059 42.824C243.059 37.3624 241.775 32.9482 239.084 29.7054L237.545 30.9826C239.847 33.7558 241.059 37.6616 241.059 42.824H243.059ZM239.099 29.7233C236.455 26.383 232.758 24.736 228.139 24.736V26.736C232.224 26.736 235.311 28.161 237.531 30.9647L239.099 29.7233Z" fill="black"/>
<path d="M6.35863 3.272L7.04094 4.00305L7.05354 3.99129L7.06573 3.97911L6.35863 3.272ZM13.4626 3.272L12.7316 3.95432L12.7433 3.96692L12.7555 3.97911L13.4626 3.272ZM13.4626 10.088L14.1697 10.7951L14.1819 10.7829L14.1937 10.7703L13.4626 10.088ZM6.35863 10.088L5.65152 10.7951L5.66371 10.8073L5.67631 10.8191L6.35863 10.088ZM6.07063 39.656V38.656H5.07063V39.656H6.07063ZM13.7506 39.656H14.7506V38.656H13.7506V39.656ZM13.7506 64.808L14.122 65.7365L14.7506 65.485V64.808H13.7506ZM12.3106 65.192L12.1145 64.2114L12.0684 64.2206L12.0233 64.2342L12.3106 65.192ZM7.12663 64.712L6.49339 65.486L6.51543 65.504L6.53845 65.5207L7.12663 64.712ZM13.7506 43.4V44.4H14.7506V43.4H13.7506ZM6.07063 43.4H5.07063V44.4H6.07063V43.4ZM6.07063 20.84L5.69923 19.9115L5.07063 20.163V20.84H6.07063ZM7.51063 20.456L7.70674 21.4366L7.74051 21.4298L7.77374 21.4208L7.51063 20.456ZM12.6946 21.032L12.0257 21.7753L12.0644 21.8101L12.1065 21.8407L12.6946 21.032ZM5.91863 6.632C5.91863 5.55781 6.28891 4.70496 7.04094 4.00305L5.67631 2.54094C4.50835 3.63104 3.91863 5.01819 3.91863 6.632H5.91863ZM7.06573 3.97911C7.83057 3.21426 8.75686 2.832 9.91063 2.832V0.831995C8.24839 0.831995 6.80668 1.40973 5.65152 2.56489L7.06573 3.97911ZM9.91063 2.832C11.1425 2.832 12.0486 3.22253 12.7316 3.95432L14.1937 2.58968C13.0847 1.40147 11.6228 0.831995 9.91063 0.831995V2.832ZM12.7555 3.97911C13.4517 4.67531 13.8066 5.53536 13.8066 6.632H15.8066C15.8066 5.04064 15.2655 3.66069 14.1697 2.56489L12.7555 3.97911ZM13.8066 6.632C13.8066 7.7293 13.4503 8.63561 12.7316 9.40568L14.1937 10.7703C15.267 9.62038 15.8066 8.2227 15.8066 6.632H13.8066ZM12.7555 9.38089C12.0775 10.0589 11.1638 10.432 9.91063 10.432V12.432C11.6015 12.432 13.0558 11.9091 14.1697 10.7951L12.7555 9.38089ZM9.91063 10.432C8.73589 10.432 7.80163 10.0669 7.04094 9.35694L5.67631 10.8191C6.83562 11.9011 8.26936 12.432 9.91063 12.432V10.432ZM7.06573 9.38089C6.29113 8.60629 5.91863 7.70777 5.91863 6.632H3.91863C3.91863 8.24423 4.50612 9.64971 5.65152 10.7951L7.06573 9.38089ZM6.07063 40.656H13.7506V38.656H6.07063V40.656ZM12.7506 39.656V64.808H14.7506V39.656H12.7506ZM13.3792 63.8795C13.1457 63.9729 12.7376 64.0868 12.1145 64.2114L12.5067 66.1726C13.1637 66.0412 13.7155 65.8991 14.122 65.7365L13.3792 63.8795ZM12.0233 64.2342C11.4892 64.3944 10.8835 64.48 10.1986 64.48V66.48C11.0497 66.48 11.852 66.3736 12.598 66.1498L12.0233 64.2342ZM10.1986 64.48C8.95833 64.48 8.17762 64.2399 7.7148 63.9033L6.53845 65.5207C7.48363 66.2081 8.75092 66.48 10.1986 66.48V64.48ZM7.75986 63.938C7.36022 63.6111 7.07063 63.0479 7.07063 62.024H5.07063C5.07063 63.4321 5.48503 64.6609 6.49339 65.486L7.75986 63.938ZM7.07063 62.024V39.656H5.07063V62.024H7.07063ZM13.7506 42.4H6.07063V44.4H13.7506V42.4ZM7.07063 43.4V20.84H5.07063V43.4H7.07063ZM6.44202 21.7685C6.67551 21.6751 7.08367 21.5612 7.70674 21.4366L7.31451 19.4754C6.65758 19.6068 6.10574 19.7489 5.69923 19.9115L6.44202 21.7685ZM7.77374 21.4208C8.38761 21.2533 9.03484 21.168 9.71863 21.168V19.168C8.86641 19.168 8.04165 19.2747 7.24751 19.4912L7.77374 21.4208ZM9.71863 21.168C10.9483 21.168 11.6485 21.4358 12.0257 21.7753L13.3636 20.2887C12.4608 19.4762 11.177 19.168 9.71863 19.168V21.168ZM12.1065 21.8407C12.446 22.0877 12.7506 22.6018 12.7506 23.72H14.7506C14.7506 22.2782 14.3512 21.0003 13.2828 20.2233L12.1065 21.8407ZM12.7506 23.72V43.4H14.7506V23.72H12.7506ZM67.1469 45.512V46.512H68.1469V45.512H67.1469ZM59.4669 45.512H58.4669V46.512H59.4669V45.512ZM56.3949 28.232L55.7523 28.9982L55.7582 29.0032L55.7643 29.0081L56.3949 28.232ZM36.4269 28.904L35.9181 28.0431L35.4269 28.3334V28.904H36.4269ZM36.4269 45.512V46.512H37.4269V45.512H36.4269ZM28.7469 45.512H27.7469V46.512H28.7469V45.512ZM29.5149 26.024L28.6737 25.4832L28.6684 25.4915L28.6632 25.4999L29.5149 26.024ZM32.3949 23.432L31.8952 22.5658L31.8817 22.5736L31.8685 22.5817L32.3949 23.432ZM39.0189 20.744L39.3083 21.7012L39.3184 21.6981L39.3285 21.6949L39.0189 20.744ZM62.0589 23.432L61.4305 24.2099L61.4387 24.2165L61.447 24.223L62.0589 23.432ZM28.7469 40.232V39.232H27.7469V40.232H28.7469ZM36.4269 40.232H37.4269V39.232H36.4269V40.232ZM36.4269 64.808L36.7983 65.7365L37.4269 65.485V64.808H36.4269ZM34.9869 65.192L34.7908 64.2114L34.7446 64.2206L34.6995 64.2342L34.9869 65.192ZM29.8029 64.712L29.1696 65.486L29.1917 65.504L29.2147 65.5207L29.8029 64.712ZM59.4669 40.232V39.232H58.4669V40.232H59.4669ZM67.1469 40.232H68.1469V39.232H67.1469V40.232ZM67.1469 64.808L67.5183 65.7365L68.1469 65.485V64.808H67.1469ZM65.6109 65.192L65.432 64.2081L65.377 64.2181L65.3235 64.2342L65.6109 65.192ZM60.4269 64.712L59.7579 65.4553L59.7966 65.4901L59.8387 65.5207L60.4269 64.712ZM66.1469 35.72V45.512H68.1469V35.72H66.1469ZM67.1469 44.512H59.4669V46.512H67.1469V44.512ZM60.4669 45.512V36.104H58.4669V45.512H60.4669ZM60.4669 36.104C60.4669 32.3334 59.3836 29.3718 57.0255 27.4559L55.7643 29.0081C57.5022 30.4202 58.4669 32.7066 58.4669 36.104H60.4669ZM57.0375 27.4658C54.824 25.6093 51.8841 24.736 48.3309 24.736V26.736C51.5617 26.736 53.9978 27.5267 55.7523 28.9982L57.0375 27.4658ZM48.3309 24.736C45.6895 24.736 43.3107 25.066 41.2079 25.7443L41.8219 27.6477C43.6871 27.046 45.8523 26.736 48.3309 26.736V24.736ZM41.2079 25.7443C39.1717 26.4011 37.4044 27.1648 35.9181 28.0431L36.9356 29.7649C38.2653 28.9792 39.8901 28.2709 41.8219 27.6477L41.2079 25.7443ZM35.4269 28.904V45.512H37.4269V28.904H35.4269ZM36.4269 44.512H28.7469V46.512H36.4269V44.512ZM29.7469 45.512V29.288H27.7469V45.512H29.7469ZM29.7469 29.288C29.7469 28.0622 29.9814 27.1739 30.3665 26.5481L28.6632 25.4999C28.0243 26.5381 27.7469 27.8258 27.7469 29.288H29.7469ZM30.3561 26.5648C30.8221 25.8398 31.6477 25.0706 32.9212 24.2823L31.8685 22.5817C30.454 23.4574 29.3597 24.4162 28.6737 25.4832L30.3561 26.5648ZM32.8946 24.2982C34.4682 23.3903 36.5972 22.5208 39.3083 21.7012L38.7295 19.7868C35.9365 20.6312 33.6496 21.5537 31.8952 22.5658L32.8946 24.2982ZM39.3285 21.6949C41.9633 20.837 44.9602 20.4 48.3309 20.4V18.4C44.7895 18.4 41.5785 18.859 38.7093 19.7931L39.3285 21.6949ZM48.3309 20.4C54.0084 20.4 58.3353 21.7099 61.4305 24.2099L62.6872 22.6541C59.1264 19.7781 54.3013 18.4 48.3309 18.4V20.4ZM61.447 24.223C64.5244 26.6035 66.1469 30.361 66.1469 35.72H68.1469C68.1469 29.943 66.3774 25.5084 62.6707 22.641L61.447 24.223ZM28.7469 41.232H36.4269V39.232H28.7469V41.232ZM35.4269 40.232V64.808H37.4269V40.232H35.4269ZM36.0555 63.8795C35.822 63.9729 35.4138 64.0868 34.7908 64.2114L35.183 66.1726C35.8399 66.0412 36.3918 65.8991 36.7983 65.7365L36.0555 63.8795ZM34.6995 64.2342C34.1655 64.3944 33.5598 64.48 32.8749 64.48V66.48C33.726 66.48 34.5283 66.3736 35.2742 66.1498L34.6995 64.2342ZM32.8749 64.48C31.6346 64.48 30.8539 64.2399 30.391 63.9033L29.2147 65.5207C30.1599 66.2081 31.4272 66.48 32.8749 66.48V64.48ZM30.4361 63.938C30.0365 63.6111 29.7469 63.0479 29.7469 62.024H27.7469C27.7469 63.4321 28.1613 64.6609 29.1696 65.486L30.4361 63.938ZM29.7469 62.024V40.232H27.7469V62.024H29.7469ZM59.4669 41.232H67.1469V39.232H59.4669V41.232ZM66.1469 40.232V64.808H68.1469V40.232H66.1469ZM66.7755 63.8795C66.5538 63.9682 66.1246 64.0822 65.432 64.2081L65.7898 66.1759C66.5051 66.0458 67.1 65.9038 67.5183 65.7365L66.7755 63.8795ZM65.3235 64.2342C64.7816 64.3967 64.2068 64.48 63.5949 64.48V66.48C64.391 66.48 65.1601 66.3713 65.8982 66.1498L65.3235 64.2342ZM63.5949 64.48C62.2783 64.48 61.4716 64.2353 61.0151 63.9033L59.8387 65.5207C60.7901 66.2127 62.0954 66.48 63.5949 66.48V64.48ZM61.0958 63.9687C60.7419 63.6501 60.4669 63.0767 60.4669 62.024H58.4669C58.4669 63.4033 58.8319 64.6219 59.7579 65.4553L61.0958 63.9687ZM60.4669 62.024V40.232H58.4669V62.024H60.4669ZM111.768 57.416L112.29 58.2693L112.768 57.9768V57.416H111.768ZM111.768 25.16L111.756 24.1601L110.768 24.1724V25.16H111.768ZM119.448 25.064H120.448V24.0514L119.436 24.0641L119.448 25.064ZM118.584 60.68L117.784 60.08L117.78 60.0859L117.775 60.0918L118.584 60.68ZM116.088 62.792L115.567 61.9387L115.555 61.946L115.543 61.9536L116.088 62.792ZM110.616 65.096L110.331 64.1375L110.319 64.141L110.308 64.1448L110.616 65.096ZM90.2641 63.848L89.8503 64.7584L89.8503 64.7584L90.2641 63.848ZM82.0081 56.36L81.1408 56.8579L81.1449 56.8649L82.0081 56.36ZM81.9121 29.48L81.0448 28.9821L81.038 28.9944L81.9121 29.48ZM89.8801 21.896L90.3134 22.7972L90.3204 22.7939L90.3273 22.7904L89.8801 21.896ZM113.208 23.048H114.208V22.5674L113.833 22.2671L113.208 23.048ZM113.208 30.152L112.501 30.8591L114.208 32.5662V30.152H113.208ZM108.408 27.08L107.985 27.9862L108.003 27.9945L108.021 28.0022L108.408 27.08ZM94.2961 27.464L94.733 28.3635L94.7433 28.3585L94.7535 28.3533L94.2961 27.464ZM88.9201 32.936L88.0347 32.4712L88.0347 32.4712L88.9201 32.936ZM91.1281 55.976L90.4376 56.6994L90.4464 56.7076L91.1281 55.976ZM107.832 59.24L108.135 60.1929L108.148 60.1889L108.161 60.1845L107.832 59.24ZM119.448 26.984L119.461 27.9839L120.448 27.9716V26.984H119.448ZM111.768 27.08H110.768V28.0926L111.781 28.0799L111.768 27.08ZM111.768 2.792L111.397 1.86353L110.768 2.11497V2.792H111.768ZM113.208 2.408L113.404 3.38858L113.438 3.38183L113.471 3.37276L113.208 2.408ZM118.392 2.984L117.723 3.72729L117.762 3.76211L117.804 3.79273L118.392 2.984ZM112.768 57.416V25.16H110.768V57.416H112.768ZM111.781 26.1599L119.461 26.0639L119.436 24.0641L111.756 24.1601L111.781 26.1599ZM118.448 25.064V57.704H120.448V25.064H118.448ZM118.448 57.704C118.448 58.7619 118.199 59.5266 117.784 60.08L119.384 61.28C120.121 60.2974 120.448 59.0781 120.448 57.704H118.448ZM117.775 60.0918C117.371 60.6472 116.662 61.2695 115.567 61.9387L116.61 63.6453C117.819 62.9065 118.773 62.1208 119.393 61.2682L117.775 60.0918ZM115.543 61.9536C114.378 62.7111 112.656 63.4462 110.331 64.1375L110.901 66.0545C113.312 65.3378 115.239 64.5369 116.633 63.6304L115.543 61.9536ZM110.308 64.1448C108.059 64.8739 105.447 65.248 102.456 65.248V67.248C105.609 67.248 108.437 66.8541 110.925 66.0472L110.308 64.1448ZM102.456 65.248C97.9639 65.248 94.0455 64.4683 90.6779 62.9376L89.8503 64.7584C93.5228 66.4277 97.7324 67.248 102.456 67.248V65.248ZM90.6779 62.9376C87.3493 61.4246 84.7528 59.0719 82.8713 55.8551L81.1449 56.8649C83.2314 60.4321 86.139 63.0714 89.8503 64.7584L90.6779 62.9376ZM82.8754 55.8621C81.0044 52.6031 80.0321 48.3424 80.0321 43.016H78.0321C78.0321 48.5696 79.0438 53.2049 81.1409 56.8579L82.8754 55.8621ZM80.0321 43.016C80.0321 37.5524 80.9757 33.2247 82.7863 29.9656L81.038 28.9944C79.0086 32.6473 78.0321 37.3436 78.0321 43.016H80.0321ZM82.7794 29.9779C84.6712 26.6825 87.1821 24.3027 90.3134 22.7972L89.4468 20.9947C85.9222 22.6893 83.1211 25.3655 81.0449 28.9821L82.7794 29.9779ZM90.3273 22.7904C93.5073 21.2004 97.0008 20.4 100.824 20.4V18.4C96.7114 18.4 92.9089 19.2636 89.4329 21.0016L90.3273 22.7904ZM100.824 20.4C103.225 20.4 105.491 20.7384 107.628 21.41L108.228 19.502C105.885 18.7656 103.415 18.4 100.824 18.4V20.4ZM107.628 21.41C109.797 22.0916 111.432 22.9079 112.583 23.8289L113.833 22.2671C112.424 21.1401 110.539 20.2284 108.228 19.502L107.628 21.41ZM112.208 23.048V30.152H114.208V23.048H112.208ZM113.915 29.4449C112.588 28.1172 110.87 27.0279 108.795 26.1578L108.021 28.0022C109.915 28.7961 111.397 29.7548 112.501 30.8591L113.915 29.4449ZM108.831 26.1738C106.751 25.2031 104.328 24.736 101.592 24.736V26.736C104.104 26.736 106.225 27.1649 107.985 27.9862L108.831 26.1738ZM101.592 24.736C98.8159 24.736 96.2262 25.3469 93.8388 26.5747L94.7535 28.3533C96.846 27.2771 99.1204 26.736 101.592 26.736V24.736ZM93.8592 26.5645C91.3974 27.7602 89.4614 29.7537 88.0347 32.4712L89.8055 33.4008C91.0668 30.9983 92.7149 29.3438 94.733 28.3635L93.8592 26.5645ZM88.0347 32.4712C86.5878 35.2271 85.9041 38.8302 85.9041 43.208H87.9041C87.9041 39.0098 88.5644 35.7649 89.8055 33.4008L88.0347 32.4712ZM85.9041 43.208C85.9041 49.1702 87.3439 53.7462 90.4377 56.6994L91.8186 55.2526C89.2804 52.8298 87.9041 48.8938 87.9041 43.208H85.9041ZM90.4464 56.7076C93.4854 59.5394 97.4922 60.912 102.36 60.912V58.912C97.8841 58.912 94.4028 57.6606 91.8099 55.2444L90.4464 56.7076ZM102.36 60.912C104.656 60.912 106.593 60.6838 108.135 60.1929L107.529 58.2871C106.256 58.6922 104.545 58.912 102.36 58.912V60.912ZM108.161 60.1845C109.69 59.6526 111.068 59.0157 112.29 58.2693L111.247 56.5627C110.164 57.2243 108.918 57.8034 107.504 58.2955L108.161 60.1845ZM119.436 25.9841L111.756 26.0801L111.781 28.0799L119.461 27.9839L119.436 25.9841ZM112.768 27.08V2.792H110.768V27.08H112.768ZM112.14 3.72047C112.373 3.62708 112.781 3.51319 113.404 3.38858L113.012 1.42742C112.355 1.5588 111.803 1.70092 111.397 1.86353L112.14 3.72047ZM113.471 3.37276C114.093 3.20329 114.708 3.12 115.32 3.12V1.12C114.524 1.12 113.732 1.22871 112.945 1.44324L113.471 3.37276ZM115.32 3.12C116.628 3.12 117.353 3.39397 117.723 3.72729L119.061 2.2407C118.151 1.42203 116.828 1.12 115.32 1.12V3.12ZM117.804 3.79273C118.156 4.04872 118.448 4.54382 118.448 5.576H120.448C120.448 4.17618 120.036 2.94328 118.98 2.17526L117.804 3.79273ZM118.448 5.576V26.984H120.448V5.576H118.448ZM134.796 3.272L135.478 4.00305L135.491 3.99129L135.503 3.97911L134.796 3.272ZM141.9 3.272L141.169 3.95432L141.181 3.96692L141.193 3.97911L141.9 3.272ZM141.9 10.088L142.607 10.7951L142.619 10.7829L142.631 10.7703L141.9 10.088ZM134.796 10.088L134.089 10.7951L134.101 10.8073L134.114 10.8191L134.796 10.088ZM134.508 39.656V38.656H133.508V39.656H134.508ZM142.188 39.656H143.188V38.656H142.188V39.656ZM142.188 64.808L142.56 65.7365L143.188 65.485V64.808H142.188ZM140.748 65.192L140.552 64.2114L140.506 64.2206L140.461 64.2342L140.748 65.192ZM135.564 64.712L134.931 65.486L134.953 65.504L134.976 65.5207L135.564 64.712ZM142.188 43.4V44.4H143.188V43.4H142.188ZM134.508 43.4H133.508V44.4H134.508V43.4ZM134.508 20.84L134.137 19.9115L133.508 20.163V20.84H134.508ZM135.948 20.456L136.144 21.4366L136.178 21.4298L136.211 21.4208L135.948 20.456ZM141.132 21.032L140.463 21.7753L140.502 21.8101L140.544 21.8407L141.132 21.032ZM134.356 6.632C134.356 5.55781 134.726 4.70496 135.478 4.00305L134.114 2.54094C132.946 3.63104 132.356 5.01819 132.356 6.632H134.356ZM135.503 3.97911C136.268 3.21426 137.194 2.832 138.348 2.832V0.831995C136.686 0.831995 135.244 1.40973 134.089 2.56489L135.503 3.97911ZM138.348 2.832C139.58 2.832 140.486 3.22253 141.169 3.95432L142.631 2.58968C141.522 1.40147 140.06 0.831995 138.348 0.831995V2.832ZM141.193 3.97911C141.889 4.67531 142.244 5.53536 142.244 6.632H144.244C144.244 5.04064 143.703 3.66069 142.607 2.56489L141.193 3.97911ZM142.244 6.632C142.244 7.7293 141.888 8.63561 141.169 9.40568L142.631 10.7703C143.704 9.62038 144.244 8.2227 144.244 6.632H142.244ZM141.193 9.38089C140.515 10.0589 139.601 10.432 138.348 10.432V12.432C140.039 12.432 141.493 11.9091 142.607 10.7951L141.193 9.38089ZM138.348 10.432C137.173 10.432 136.239 10.0669 135.478 9.35694L134.114 10.8191C135.273 11.9011 136.707 12.432 138.348 12.432V10.432ZM135.503 9.38089C134.729 8.60629 134.356 7.70777 134.356 6.632H132.356C132.356 8.24423 132.944 9.64971 134.089 10.7951L135.503 9.38089ZM134.508 40.656H142.188V38.656H134.508V40.656ZM141.188 39.656V64.808H143.188V39.656H141.188ZM141.817 63.8795C141.583 63.9729 141.175 64.0868 140.552 64.2114L140.944 66.1726C141.601 66.0412 142.153 65.8991 142.56 65.7365L141.817 63.8795ZM140.461 64.2342C139.927 64.3944 139.321 64.48 138.636 64.48V66.48C139.487 66.48 140.29 66.3736 141.035 66.1498L140.461 64.2342ZM138.636 64.48C137.396 64.48 136.615 64.2399 136.152 63.9033L134.976 65.5207C135.921 66.2081 137.188 66.48 138.636 66.48V64.48ZM136.197 63.938C135.798 63.6111 135.508 63.0479 135.508 62.024H133.508C133.508 63.4321 133.923 64.6609 134.931 65.486L136.197 63.938ZM135.508 62.024V39.656H133.508V62.024H135.508ZM142.188 42.4H134.508V44.4H142.188V42.4ZM135.508 43.4V20.84H133.508V43.4H135.508ZM134.88 21.7685C135.113 21.6751 135.521 21.5612 136.144 21.4366L135.752 19.4754C135.095 19.6068 134.543 19.7489 134.137 19.9115L134.88 21.7685ZM136.211 21.4208C136.825 21.2533 137.472 21.168 138.156 21.168V19.168C137.304 19.168 136.479 19.2747 135.685 19.4912L136.211 21.4208ZM138.156 21.168C139.386 21.168 140.086 21.4358 140.463 21.7753L141.801 20.2887C140.898 19.4762 139.614 19.168 138.156 19.168V21.168ZM140.544 21.8407C140.884 22.0877 141.188 22.6018 141.188 23.72H143.188C143.188 22.2782 142.789 21.0003 141.72 20.2233L140.544 21.8407ZM141.188 23.72V43.4H143.188V23.72H141.188ZM165.344 61.544L164.919 62.4492L164.927 62.4528L164.935 62.4563L165.344 61.544ZM157.76 54.44L156.898 54.947L156.898 54.947L157.76 54.44ZM157.664 29.288L156.802 28.781L156.799 28.7873L156.795 28.7937L157.664 29.288ZM165.536 21.896L165.089 21.0016L165.089 21.0016L165.536 21.896ZM185.024 20.552L184.723 21.5056L184.738 21.5102L184.753 21.5144L185.024 20.552ZM191.264 23.24L191.819 22.4079L191.812 22.403L191.264 23.24ZM193.568 25.448L192.746 26.0172L192.772 26.0539L192.8 26.0882L193.568 25.448ZM194.528 57.992V58.992H195.528V57.992H194.528ZM186.848 57.992H185.848V58.992H186.848V57.992ZM186.848 28.424H187.848V27.88L187.392 27.5844L186.848 28.424ZM182.72 26.6L182.382 27.5409L182.404 27.5489L182.426 27.5558L182.72 26.6ZM166.592 29.672L165.885 28.9649L165.885 28.9649L166.592 29.672ZM166.592 53.672L165.913 54.4055L165.921 54.4135L166.592 53.672ZM183.296 55.88L182.811 55.0058L182.811 55.0058L183.296 55.88ZM187.424 52.712L188.423 52.6558L188.287 50.2369L186.677 52.0476L187.424 52.712ZM187.808 59.528L188.538 60.2119L188.831 59.8994L188.807 59.4718L187.808 59.528ZM183.2 62.408L183.577 63.3345L183.584 63.3316L183.591 63.3286L183.2 62.408ZM186.848 56.36V55.36H185.848V56.36H186.848ZM194.528 56.36H195.528V55.36H194.528V56.36ZM191.744 77.096L190.935 76.509L190.93 76.5157L190.925 76.5225L191.744 77.096ZM184.256 82.664L183.918 81.7231L183.912 81.7253L184.256 82.664ZM165.344 83.336L165.052 84.2924L165.052 84.2924L165.344 83.336ZM160.64 81.608L160.147 82.478L160.157 82.4833L160.166 82.4885L160.64 81.608ZM158.336 75.176L157.547 74.5621L157.51 74.6097L157.479 74.6615L158.336 75.176ZM159.968 73.832L160.574 73.0366L160.079 72.6588L159.521 72.9376L159.968 73.832ZM165.632 76.616L165.97 75.6748L165.963 75.6723L165.956 75.6698L165.632 76.616ZM183.392 75.176L182.765 74.3972L182.754 74.406L183.392 75.176ZM175.616 62.656C172.034 62.656 168.751 61.9774 165.754 60.6317L164.935 62.4563C168.21 63.9266 171.775 64.656 175.616 64.656V62.656ZM165.769 60.6388C162.833 59.2604 160.45 57.0402 158.622 53.933L156.898 54.947C158.911 58.3678 161.584 60.8836 164.919 62.4492L165.769 60.6388ZM158.622 53.933C156.823 50.874 155.88 46.7485 155.88 41.48H153.88C153.88 46.9635 154.858 51.478 156.898 54.947L158.622 53.933ZM155.88 41.48C155.88 36.7394 156.785 32.8575 158.534 29.7823L156.795 28.7937C154.832 32.2465 153.88 36.4926 153.88 41.48H155.88ZM158.526 29.795C160.35 26.6944 162.832 24.3664 165.984 22.7904L165.089 21.0016C161.585 22.7536 158.819 25.3536 156.802 28.781L158.526 29.795ZM165.984 22.7904C169.153 21.2057 172.804 20.4 176.96 20.4V18.4C172.541 18.4 168.576 19.2583 165.089 21.0016L165.984 22.7904ZM176.96 20.4C179.818 20.4 182.402 20.7727 184.723 21.5056L185.326 19.5984C182.782 18.7953 179.991 18.4 176.96 18.4V20.4ZM184.753 21.5144C187.179 22.1988 189.159 23.0585 190.717 24.077L191.812 22.403C190.041 21.2455 187.862 20.3132 185.296 19.5895L184.753 21.5144ZM190.71 24.072C191.579 24.6518 192.251 25.3024 192.746 26.0172L194.391 24.8788C193.733 23.9296 192.869 23.1082 191.819 22.4079L190.71 24.072ZM192.8 26.0882C193.268 26.6496 193.528 27.3723 193.528 28.328H195.528C195.528 26.9797 195.149 25.7824 194.337 24.8078L192.8 26.0882ZM193.528 28.328V57.992H195.528V28.328H193.528ZM194.528 56.992H186.848V58.992H194.528V56.992ZM187.848 57.992V28.424H185.848V57.992H187.848ZM187.392 27.5844C186.205 26.8166 184.738 26.1747 183.014 25.6442L182.426 27.5558C184.03 28.0493 185.316 28.6234 186.305 29.2636L187.392 27.5844ZM183.059 25.6591C181.322 25.0338 179.281 24.736 176.96 24.736V26.736C179.119 26.736 180.919 27.0142 182.382 27.5409L183.059 25.6591ZM176.96 24.736C172.452 24.736 168.726 26.124 165.885 28.9649L167.299 30.3791C169.707 27.972 172.893 26.736 176.96 26.736V24.736ZM165.885 28.9649C163.01 31.8405 161.656 36.0417 161.656 41.384H163.656C163.656 36.3583 164.927 32.7515 167.299 30.3791L165.885 28.9649ZM161.656 41.384C161.656 47.2575 162.989 51.6955 165.913 54.4054L167.272 52.9386C164.948 50.7845 163.656 47.0305 163.656 41.384H161.656ZM165.921 54.4135C168.808 57.0253 172.349 58.32 176.48 58.32V56.32C172.804 56.32 169.753 55.1827 167.263 52.9305L165.921 54.4135ZM176.48 58.32C179.398 58.32 181.856 57.8244 183.782 56.7542L182.811 55.0058C181.281 55.8556 179.194 56.32 176.48 56.32V58.32ZM183.782 56.7542C185.582 55.7541 187.055 54.6325 188.172 53.3764L186.677 52.0476C185.746 53.0955 184.467 54.0858 182.811 55.0058L183.782 56.7542ZM186.426 52.7682L186.81 59.5842L188.807 59.4718L188.423 52.6558L186.426 52.7682ZM187.079 58.8441C186.256 59.722 184.865 60.6155 182.81 61.4874L183.591 63.3286C185.76 62.4085 187.441 61.382 188.538 60.2119L187.079 58.8441ZM182.824 61.4815C180.93 62.2509 178.539 62.656 175.616 62.656V64.656C178.71 64.656 181.375 64.2291 183.577 63.3345L182.824 61.4815ZM187.848 66.44V56.36H185.848V66.44H187.848ZM186.848 57.36H194.528V55.36H186.848V57.36ZM193.528 56.36V66.92H195.528V56.36H193.528ZM193.528 66.92C193.528 71.0032 192.631 74.1688 190.935 76.509L192.554 77.683C194.569 74.9032 195.528 71.2848 195.528 66.92H193.528ZM190.925 76.5225C189.262 78.8983 186.941 80.6346 183.918 81.7231L184.595 83.6049C187.971 82.3895 190.643 80.4137 192.564 77.6695L190.925 76.5225ZM183.912 81.7253C180.905 82.8299 177.472 83.392 173.6 83.392V85.392C177.664 85.392 181.336 84.8021 184.601 83.6027L183.912 81.7253ZM173.6 83.392C170.469 83.392 167.821 83.047 165.637 82.3796L165.052 84.2924C167.476 85.033 170.332 85.392 173.6 85.392V83.392ZM165.637 82.3796C163.328 81.6743 161.849 81.1229 161.114 80.7275L160.166 82.4885C161.096 82.9891 162.753 83.5897 165.052 84.2924L165.637 82.3796ZM161.133 80.738C159.41 79.7612 158.76 78.667 158.76 77.48H156.76C156.76 79.621 158.031 81.2788 160.147 82.478L161.133 80.738ZM158.76 77.48C158.76 76.7288 158.92 76.1465 159.194 75.6905L157.479 74.6615C156.984 75.4855 156.76 76.4393 156.76 77.48H158.76ZM159.126 75.7899C159.484 75.3294 159.912 74.9783 160.416 74.7264L159.521 72.9376C158.745 73.3257 158.085 73.8706 157.547 74.5621L159.126 75.7899ZM159.362 74.6274C160.824 75.7411 162.822 76.7116 165.309 77.5622L165.956 75.6698C163.578 74.8564 161.801 73.9709 160.574 73.0366L159.362 74.6274ZM165.295 77.5572C167.905 78.4945 170.676 78.96 173.6 78.96V76.96C170.892 76.96 168.351 76.5295 165.97 75.6748L165.295 77.5572ZM173.6 78.96C178.014 78.96 181.543 78.007 184.03 75.946L182.754 74.406C180.762 76.057 177.762 76.96 173.6 76.96V78.96ZM184.02 75.9548C186.634 73.8491 187.848 70.6003 187.848 66.44H185.848C185.848 70.2157 184.759 72.7909 182.765 74.3972L184.02 75.9548ZM247.243 55.208L246.352 54.7543L246.352 54.7543L247.243 55.208ZM216.523 63.368L216.016 64.23L216.023 64.2342L216.523 63.368ZM208.939 55.208L209.83 54.7543L209.83 54.7543L208.939 55.208ZM208.939 30.44L208.054 29.9736L208.051 29.9797L208.939 30.44ZM216.619 22.28L216.119 21.4138L216.112 21.4181L216.619 22.28ZM247.147 30.44L246.256 30.8937L246.261 30.9035L246.266 30.9131L247.147 30.44ZM217.867 30.344L217.099 29.7038L217.097 29.7054L217.867 30.344ZM217.771 55.4L216.993 56.0288L217.001 56.0386L217.771 55.4ZM238.315 55.4L237.539 54.7694L237.537 54.7713L238.315 55.4ZM238.315 30.344L237.531 30.9647L237.538 30.9737L237.545 30.9826L238.315 30.344ZM248.931 42.824C248.931 47.4334 248.059 51.4002 246.352 54.7543L248.134 55.6617C250.01 51.9758 250.931 47.6866 250.931 42.824H248.931ZM246.352 54.7543C244.642 58.1121 242.244 60.687 239.152 62.5061L240.166 64.2299C243.602 62.209 246.259 59.3439 248.134 55.6617L246.352 54.7543ZM239.152 62.5061C236.065 64.3216 232.407 65.248 228.139 65.248V67.248C232.703 67.248 236.724 66.2544 240.166 64.2299L239.152 62.5061ZM228.139 65.248C223.872 65.248 220.177 64.3218 217.023 62.5018L216.023 64.2342C219.525 66.2542 223.574 67.248 228.139 67.248V65.248ZM217.03 62.5061C213.938 60.687 211.539 58.1121 209.83 54.7543L208.048 55.6617C209.922 59.3439 212.58 62.209 216.016 64.2299L217.03 62.5061ZM209.83 54.7543C208.122 51.4002 207.251 47.4334 207.251 42.824H205.251C205.251 47.6866 206.171 51.9758 208.048 55.6617L209.83 54.7543ZM207.251 42.824C207.251 38.1475 208.124 34.1847 209.827 30.9003L208.051 29.9797C206.17 33.6073 205.251 37.9005 205.251 42.824H207.251ZM209.823 30.9064C211.597 27.542 214.03 24.9628 217.126 23.1419L216.112 21.4181C212.679 23.4372 209.992 26.298 208.054 29.9736L209.823 30.9064ZM217.119 23.1462C220.275 21.325 223.939 20.4 228.139 20.4V18.4C223.635 18.4 219.618 19.395 216.119 21.4138L217.119 23.1462ZM228.139 20.4C232.34 20.4 235.967 21.3251 239.056 23.1419L240.07 21.4181C236.63 19.3949 232.642 18.4 228.139 18.4V20.4ZM239.056 23.1419C242.148 24.961 244.546 27.5359 246.256 30.8937L248.038 29.9863C246.163 26.3041 243.506 23.439 240.07 21.4181L239.056 23.1419ZM246.266 30.9131C248.028 34.1946 248.931 38.1526 248.931 42.824H250.931C250.931 37.8954 249.978 33.5974 248.028 29.9669L246.266 30.9131ZM228.139 24.736C223.579 24.736 219.864 26.3857 217.099 29.7038L218.635 30.9842C220.99 28.1583 224.123 26.736 228.139 26.736V24.736ZM217.097 29.7054C214.407 32.9482 213.123 37.3624 213.123 42.824H215.123C215.123 37.6616 216.335 33.7558 218.636 30.9826L217.097 29.7054ZM213.123 42.824C213.123 48.3408 214.37 52.7846 216.993 56.0287L218.549 54.7713C216.307 51.9994 215.123 48.0592 215.123 42.824H213.123ZM217.001 56.0386C219.713 59.307 223.469 60.912 228.139 60.912V58.912C223.977 58.912 220.82 57.509 218.54 54.7614L217.001 56.0386ZM228.139 60.912C232.75 60.912 236.445 59.3029 239.093 56.0287L237.537 54.7713C235.32 57.5131 232.232 58.912 228.139 58.912V60.912ZM239.091 56.0306C241.775 52.7276 243.059 48.2871 243.059 42.824H241.059C241.059 47.9849 239.847 51.9284 237.539 54.7694L239.091 56.0306ZM243.059 42.824C243.059 37.3624 241.775 32.9482 239.084 29.7054L237.545 30.9826C239.847 33.7558 241.059 37.6616 241.059 42.824H243.059ZM239.099 29.7233C236.455 26.383 232.758 24.736 228.139 24.736V26.736C232.224 26.736 235.311 28.161 237.531 30.9647L239.099 29.7233Z" fill="black" fill-opacity="0.2"/>
</g>
<circle cx="9.5" cy="6.5" r="6.5" fill="#0051BA"/>
<defs>
<filter id="filter0_d_0_1" x="0.918625" y="1.83199" width="253.012" height="90.56" filterUnits="userSpaceOnUse" color-interpolation-filters="sRGB">
<feFlood flood-opacity="0" result="BackgroundImageFix"/>
<feColorMatrix in="SourceAlpha" type="matrix" values="0 0 0 0 0 0 0 0 0 0 0 0 0 0 0 0 0 0 127 0" result="hardAlpha"/>
<feOffset dy="4"/>
<feGaussianBlur stdDeviation="2"/>
<feComposite in2="hardAlpha" operator="out"/>
<feColorMatrix type="matrix" values="0 0 0 0 0 0 0 0 0 0 0 0 0 0 0 0 0 0 0.25 0"/>
<feBlend mode="normal" in2="BackgroundImageFix" result="effect1_dropShadow_0_1"/>
<feBlend mode="normal" in="SourceGraphic" in2="effect1_dropShadow_0_1" result="shape"/>
</filter>
</defs>
</svg>
