<svg width="300" height="140" viewBox="0 0 300 140" fill="none" xmlns="http://www.w3.org/2000/svg">
<rect width="300" height="140" rx="34" fill="white"/>
<path d="M25.9543 38.344C25.9543 36.68 26.5303 35.304 27.6823 34.216C28.8343 33.128 30.2423 32.584 31.9062 32.584C33.6983 32.584 35.1383 33.128 36.2263 34.216C37.3143 35.304 37.8583 36.68 37.8583 38.344C37.8583 39.944 37.3143 41.32 36.2263 42.472C35.1383 43.56 33.6983 44.104 31.9062 44.104C30.2423 44.104 28.8343 43.56 27.6823 42.472C26.5303 41.32 25.9543 39.944 25.9543 38.344ZM27.0103 71.656H36.8983V96.808C36.4503 96.936 35.8103 97.096 34.9783 97.288C34.2103 97.48 33.3463 97.576 32.3863 97.576C30.5943 97.576 29.2503 97.224 28.3543 96.52C27.4583 95.816 27.0103 94.664 27.0103 93.064V71.656ZM36.8983 76.552H27.0103V52.36C27.4583 52.232 28.0983 52.104 28.9303 51.976C29.7623 51.784 30.6583 51.688 31.6183 51.688C33.4103 51.688 34.7223 52.04 35.5543 52.744C36.4503 53.384 36.8983 54.536 36.8983 56.2V76.552ZM90.944 67.528V77.032H81.056V67.912C81.056 64.712 80.16 62.376 78.368 60.904C76.576 59.432 74.176 58.696 71.168 58.696C68.928 58.696 66.912 58.984 65.12 59.56C63.328 60.136 61.792 60.776 60.512 61.48V77.032H50.624V61.288C50.624 59.816 50.912 58.632 51.488 57.736C52.128 56.776 53.12 55.88 54.464 55.048C56.256 53.96 58.592 52.968 61.472 52.072C64.352 51.176 67.584 50.728 71.168 50.728C77.376 50.728 82.208 52.136 85.664 54.952C89.184 57.704 90.944 61.896 90.944 67.528ZM50.624 72.04H60.512V96.808C60.064 96.936 59.424 97.096 58.592 97.288C57.824 97.48 56.96 97.576 56 97.576C54.208 97.576 52.864 97.224 51.968 96.52C51.072 95.816 50.624 94.664 50.624 93.064V72.04ZM81.056 72.04H90.944V96.808C90.496 96.936 89.856 97.096 89.024 97.288C88.192 97.48 87.328 97.576 86.432 97.576C84.576 97.576 83.2 97.224 82.304 96.52C81.472 95.816 81.056 94.664 81.056 93.064V72.04ZM134.299 88.168V56.968H144.187V88.936C144.187 90.28 143.899 91.368 143.323 92.2C142.747 93.032 141.819 93.832 140.539 94.6C139.131 95.496 137.179 96.328 134.683 97.096C132.187 97.928 129.307 98.344 126.043 98.344C121.179 98.344 116.923 97.512 113.275 95.848C109.691 94.184 106.875 91.624 104.827 88.168C102.843 84.648 101.851 80.168 101.851 74.728C101.851 69.16 102.843 64.616 104.827 61.096C106.811 57.576 109.531 54.984 112.987 53.32C116.443 51.592 120.219 50.728 124.315 50.728C126.747 50.728 129.019 51.048 131.131 51.688C133.243 52.328 134.907 53.128 136.123 54.088V62.728C134.971 61.64 133.499 60.712 131.707 59.944C129.915 59.112 127.835 58.696 125.467 58.696C122.971 58.696 120.667 59.24 118.555 60.328C116.507 61.352 114.875 63.048 113.659 65.416C112.443 67.784 111.835 70.92 111.835 74.824C111.835 80.2 113.115 84.136 115.675 86.632C118.235 89.128 121.659 90.376 125.947 90.376C127.931 90.376 129.563 90.152 130.843 89.704C132.187 89.256 133.339 88.744 134.299 88.168ZM144.187 59.176H134.299V34.696C134.747 34.568 135.387 34.408 136.219 34.216C137.051 34.024 137.915 33.928 138.811 33.928C140.667 33.928 142.011 34.28 142.843 34.984C143.739 35.624 144.187 36.776 144.187 38.44V59.176ZM157.017 38.344C157.017 36.68 157.593 35.304 158.745 34.216C159.897 33.128 161.305 32.584 162.969 32.584C164.761 32.584 166.201 33.128 167.289 34.216C168.377 35.304 168.921 36.68 168.921 38.344C168.921 39.944 168.377 41.32 167.289 42.472C166.201 43.56 164.761 44.104 162.969 44.104C161.305 44.104 159.897 43.56 158.745 42.472C157.593 41.32 157.017 39.944 157.017 38.344ZM158.073 71.656H167.961V96.808C167.513 96.936 166.873 97.096 166.041 97.288C165.273 97.48 164.409 97.576 163.449 97.576C161.657 97.576 160.313 97.224 159.417 96.52C158.521 95.816 158.073 94.664 158.073 93.064V71.656ZM167.961 76.552H158.073V52.36C158.521 52.232 159.161 52.104 159.993 51.976C160.825 51.784 161.721 51.688 162.681 51.688C164.473 51.688 165.785 52.04 166.617 52.744C167.513 53.384 167.961 54.536 167.961 56.2V76.552ZM200.406 95.464C196.631 95.464 193.143 94.76 189.943 93.352C186.807 91.88 184.279 89.512 182.359 86.248C180.439 82.92 179.479 78.568 179.479 73.192C179.479 68.264 180.439 64.136 182.359 60.808C184.279 57.48 186.935 54.984 190.327 53.32C193.783 51.592 197.751 50.728 202.231 50.728C205.367 50.728 208.247 51.144 210.871 51.976C213.495 52.744 215.639 53.672 217.303 54.76C218.327 55.464 219.159 56.264 219.799 57.16C220.439 58.056 220.759 59.144 220.759 60.424V90.184H211.063V61C210.103 60.424 208.919 59.912 207.511 59.464C206.103 58.952 204.407 58.696 202.423 58.696C198.519 58.696 195.351 59.912 192.919 62.344C190.551 64.712 189.367 68.296 189.367 73.096C189.367 78.472 190.551 82.248 192.919 84.424C195.287 86.6 198.231 87.688 201.751 87.688C204.375 87.688 206.487 87.24 208.087 86.344C209.687 85.448 210.999 84.488 212.023 83.464L212.503 91.72C211.415 92.68 209.847 93.544 207.799 94.312C205.751 95.08 203.287 95.464 200.406 95.464ZM211.159 97.768V88.072H220.759V98.248C220.759 102.536 219.799 105.992 217.879 108.616C215.959 111.304 213.335 113.256 210.007 114.472C206.743 115.688 203.063 116.296 198.967 116.296C195.703 116.296 192.887 115.944 190.519 115.24C188.151 114.6 186.455 113.992 185.431 113.416C183.383 112.2 182.359 110.632 182.359 108.712C182.359 107.624 182.583 106.696 183.031 105.928C183.543 105.224 184.119 104.68 184.759 104.296C186.231 105.32 188.183 106.216 190.615 106.984C193.047 107.816 195.639 108.232 198.391 108.232C202.487 108.232 205.623 107.4 207.799 105.736C210.039 104.072 211.159 101.416 211.159 97.768ZM276.913 74.536C276.913 79.336 275.985 83.528 274.129 87.112C272.273 90.696 269.649 93.48 266.257 95.464C262.865 97.384 258.865 98.344 254.257 98.344C249.649 98.344 245.649 97.384 242.257 95.464C238.865 93.48 236.241 90.728 234.385 87.208C232.529 83.624 231.601 79.4 231.601 74.536C231.601 69.672 232.529 65.48 234.385 61.96C236.305 58.376 238.961 55.624 242.353 53.704C245.809 51.72 249.777 50.728 254.257 50.728C258.801 50.728 262.769 51.72 266.161 53.704C269.553 55.624 272.177 58.376 274.033 61.96C275.953 65.48 276.913 69.672 276.913 74.536ZM254.257 58.696C250.417 58.696 247.345 60.104 245.041 62.92C242.801 65.736 241.681 69.608 241.681 74.536C241.681 79.528 242.769 83.432 244.945 86.248C247.185 89 250.289 90.376 254.257 90.376C258.225 90.376 261.297 88.968 263.473 86.152C265.713 83.336 266.833 79.464 266.833 74.536C266.833 69.608 265.713 65.736 263.473 62.92C261.233 60.104 258.161 58.696 254.257 58.696Z" fill="black"/>
<circle cx="31.5" cy="38.5" r="6.5" fill="#0051BA"/>
</svg>
